<svg width="646" height="324" viewBox="0 0 646 324" fill="none" xmlns="http://www.w3.org/2000/svg">
<path d="M642.728 252.596C637.533 270.984 623.662 286.003 602.981 297.41C582.298 308.818 554.822 316.602 522.459 320.52C457.735 328.357 373.517 320.725 285.153 295.757C196.788 270.788 121.03 233.217 69.9781 192.666C44.4519 172.39 25.1126 151.378 13.4588 130.833C1.80565 110.289 -2.15376 90.2319 3.04177 71.8448C8.23731 53.4576 22.1081 38.4382 42.7893 27.0313C63.4716 15.6237 90.9479 7.83938 123.31 3.92088C188.035 -3.91598 272.253 3.71579 360.617 28.6844C448.982 53.653 524.74 91.2246 575.792 131.775C601.318 152.051 620.657 173.064 632.311 193.608C643.964 214.152 647.924 234.209 642.728 252.596Z" stroke="#FF3333" stroke-width="0.5"/>
</svg>
